<svg width="100" height="100" viewBox="0 0 100 100" xmlns="http://www.w3.org/2000/svg">
  <ellipse cx="50" cy="85" rx="40" ry="5" fill="black" fill-opacity="0.1"/>
  <path d="M10 60C10 57 12 55 15 55H20L30 30C31 27 34 25 38 25H75C80 25 84 29 85 34L90 55V75C90 78 88 80 85 80H15C12 80 10 78 10 75V60Z" fill="#007BFF"/>
  <path d="M35 32H50V50H26L35 32Z" fill="white" fill-opacity="0.3"/>
  <rect x="55" y="32" width="25" height="18" fill="white" fill-opacity="0.3"/>
  <circle cx="25" cy="80" r="10" fill="#1A1A1A"/>
  <circle cx="75" cy="80" r="10" fill="#1A1A1A"/>
  <circle cx="25" cy="80" r="4" fill="#999"/>
  <circle cx="75" cy="80" r="4" fill="#999"/>
</svg>
